# Blender v2.78 (sub 0) OBJ File: 'stestobj.blend'
# www.blender.org
mtllib stestobj.mtl
o Cube
v 1.000000 -1.000000 -1.000000
v 1.000000 -1.000000 1.000000
v -1.000000 -1.000000 1.000000
v -1.000000 -1.000000 -1.000000
v 1.000000 1.000000 -0.999999
v 0.999999 1.000000 1.000001
v -1.000000 1.000000 1.000000
v -1.000000 1.000000 -1.000000
v 1.000000 -1.000000 -1.000000
v 1.000000 -1.000000 1.000000
v -1.000000 -1.000000 1.000000
v -1.000000 -1.000000 -1.000000
v 1.000000 1.000000 -0.999999
v 0.999999 1.000000 1.000001
v -1.000000 1.000000 1.000000
v -1.000000 1.000000 -1.000000
vt 0.2496 0.2496
vt 0.4992 0.0001
vt 0.4992 0.2496
vt 0.4992 0.7487
vt 0.2496 0.4992
vt 0.4992 0.4992
vt 0.0001 0.7487
vt 0.2496 0.9983
vt 0.0001 0.9983
vt 0.4992 0.9983
vt 0.7487 0.9983
vt 0.7487 0.7487
vt 0.0832 0.9985
vt 0.1663 0.9999
vt 0.0832 0.9999
vt 0.4155 0.9985
vt 0.4986 0.9999
vt 0.4155 0.9999
vt 0.4986 0.9985
vt 0.5817 0.9999
vt 0.2494 0.9985
vt 0.3324 0.9999
vt 0.2494 0.9999
vt 0.1663 0.9985
vt 0.3324 0.9985
vt 0.0001 0.9985
vt 0.0001 0.9999
vt 0.2496 0.0001
vt 0.2496 0.7487
vt 0.5817 0.9985
vn 0.0000 -1.0000 0.0000
vn 0.0000 1.0000 0.0000
vn 1.0000 -0.0000 0.0000
vn 0.0000 -0.0000 1.0000
vn -1.0000 -0.0000 -0.0000
vn 0.0000 0.0000 -1.0000
g Cube_Cube_Material.001
usemtl Material.001
s off
f 2/1/1 4/2/1 1/3/1
f 8/4/2 6/5/2 5/6/2
f 5/6/3 2/1/3 1/3/3
f 6/7/4 3/8/4 2/9/4
f 3/8/5 8/4/5 4/10/5
f 1/11/6 8/4/6 5/12/6
f 6/13/4 10/14/4 14/15/4
f 1/16/4 13/17/4 9/18/4
f 5/19/4 16/20/4 13/17/4
f 3/21/4 12/22/4 11/23/4
f 2/24/4 11/23/4 10/14/4
f 4/25/4 9/18/4 12/22/4
f 7/26/4 14/15/4 15/27/4
f 2/1/1 3/28/1 4/2/1
f 8/4/2 7/29/2 6/5/2
f 5/6/3 6/5/3 2/1/3
f 6/7/4 7/29/4 3/8/4
f 3/8/5 7/29/5 8/4/5
f 1/11/6 4/10/6 8/4/6
f 6/13/4 2/24/4 10/14/4
f 1/16/4 5/19/4 13/17/4
f 5/19/4 8/30/4 16/20/4
f 3/21/4 4/25/4 12/22/4
f 2/24/4 3/21/4 11/23/4
f 4/25/4 1/16/4 9/18/4
f 7/26/4 6/13/4 14/15/4
